<svg width="1000" height="1500" viewBox="0 0 1000 1500" fill="none" xmlns="http://www.w3.org/2000/svg">
<rect width="1000" height="1500" fill="#1C1C1C"/>
<path d="M194.99 713.273H208.307L231.46 769.807H232.312L255.466 713.273H268.783V786H258.342V733.372H257.668L236.219 785.893H227.554L206.105 733.337H205.43V786H194.99V713.273ZM306.86 787.101C301.746 787.101 297.283 785.929 293.472 783.585C289.66 781.241 286.701 777.963 284.594 773.749C282.487 769.535 281.434 764.61 281.434 758.976C281.434 753.318 282.487 748.37 284.594 744.132C286.701 739.894 289.66 736.604 293.472 734.26C297.283 731.916 301.746 730.744 306.86 730.744C311.973 730.744 316.436 731.916 320.248 734.26C324.059 736.604 327.018 739.894 329.125 744.132C331.232 748.37 332.286 753.318 332.286 758.976C332.286 764.61 331.232 769.535 329.125 773.749C327.018 777.963 324.059 781.241 320.248 783.585C316.436 785.929 311.973 787.101 306.86 787.101ZM306.895 778.188C310.21 778.188 312.956 777.312 315.134 775.56C317.312 773.808 318.922 771.476 319.963 768.564C321.029 765.652 321.561 762.444 321.561 758.94C321.561 755.46 321.029 752.264 319.963 749.352C318.922 746.417 317.312 744.061 315.134 742.286C312.956 740.51 310.21 739.622 306.895 739.622C303.557 739.622 300.787 740.51 298.586 742.286C296.408 744.061 294.786 746.417 293.721 749.352C292.679 752.264 292.158 755.46 292.158 758.94C292.158 762.444 292.679 765.652 293.721 768.564C294.786 771.476 296.408 773.808 298.586 775.56C300.787 777.312 303.557 778.188 306.895 778.188ZM388.944 731.455L369.164 786H357.801L337.985 731.455H349.385L363.199 773.429H363.767L377.545 731.455H388.944ZM398.923 786V731.455H409.541V786H398.923ZM404.285 723.038C402.439 723.038 400.852 722.423 399.527 721.192C398.225 719.937 397.574 718.446 397.574 716.717C397.574 714.965 398.225 713.474 399.527 712.243C400.852 710.988 402.439 710.361 404.285 710.361C406.132 710.361 407.706 710.988 409.008 712.243C410.334 713.474 410.997 714.965 410.997 716.717C410.997 718.446 410.334 719.937 409.008 721.192C407.706 722.423 406.132 723.038 404.285 723.038ZM447.334 787.101C441.96 787.101 437.331 785.953 433.449 783.656C429.59 781.336 426.607 778.081 424.5 773.891C422.417 769.677 421.375 764.741 421.375 759.082C421.375 753.495 422.417 748.571 424.5 744.31C426.607 740.048 429.543 736.722 433.307 734.331C437.095 731.94 441.522 730.744 446.588 730.744C449.666 730.744 452.649 731.253 455.537 732.271C458.425 733.289 461.018 734.887 463.314 737.065C465.61 739.243 467.421 742.072 468.747 745.553C470.073 749.009 470.736 753.211 470.736 758.159V761.923H427.376V753.969H460.331C460.331 751.175 459.763 748.701 458.626 746.547C457.49 744.369 455.892 742.652 453.832 741.398C451.796 740.143 449.405 739.516 446.659 739.516C443.676 739.516 441.072 740.25 438.847 741.717C436.645 743.161 434.94 745.055 433.733 747.399C432.549 749.719 431.957 752.241 431.957 754.963V761.178C431.957 764.823 432.597 767.925 433.875 770.482C435.177 773.038 436.988 774.991 439.308 776.341C441.628 777.667 444.339 778.33 447.44 778.33C449.453 778.33 451.287 778.045 452.945 777.477C454.602 776.885 456.034 776.009 457.241 774.849C458.449 773.689 459.372 772.257 460.011 770.553L470.061 772.364C469.256 775.323 467.812 777.915 465.729 780.141C463.669 782.342 461.077 784.059 457.952 785.29C454.85 786.497 451.311 787.101 447.334 787.101ZM509.834 786V713.273H535.757C541.415 713.273 546.103 714.303 549.82 716.362C553.536 718.422 556.318 721.239 558.165 724.814C560.011 728.365 560.935 732.366 560.935 736.817C560.935 741.291 560 745.316 558.129 748.891C556.283 752.442 553.489 755.259 549.749 757.342C546.032 759.402 541.356 760.432 535.722 760.432H517.895V751.128H534.727C538.302 751.128 541.202 750.512 543.428 749.281C545.653 748.027 547.286 746.322 548.328 744.168C549.37 742.013 549.891 739.563 549.891 736.817C549.891 734.071 549.37 731.632 548.328 729.501C547.286 727.371 545.641 725.702 543.392 724.494C541.167 723.287 538.231 722.683 534.585 722.683H520.807V786H509.834ZM595.239 787.101C590.125 787.101 585.662 785.929 581.851 783.585C578.039 781.241 575.08 777.963 572.973 773.749C570.866 769.535 569.812 764.61 569.812 758.976C569.812 753.318 570.866 748.37 572.973 744.132C575.08 739.894 578.039 736.604 581.851 734.26C585.662 731.916 590.125 730.744 595.239 730.744C600.352 730.744 604.815 731.916 608.626 734.26C612.438 736.604 615.397 739.894 617.504 744.132C619.611 748.37 620.665 753.318 620.665 758.976C620.665 764.61 619.611 769.535 617.504 773.749C615.397 777.963 612.438 781.241 608.626 783.585C604.815 785.929 600.352 787.101 595.239 787.101ZM595.274 778.188C598.589 778.188 601.335 777.312 603.513 775.56C605.691 773.808 607.301 771.476 608.342 768.564C609.408 765.652 609.94 762.444 609.94 758.94C609.94 755.46 609.408 752.264 608.342 749.352C607.301 746.417 605.691 744.061 603.513 742.286C601.335 740.51 598.589 739.622 595.274 739.622C591.936 739.622 589.166 740.51 586.964 742.286C584.786 744.061 583.165 746.417 582.099 749.352C581.058 752.264 580.537 755.46 580.537 758.94C580.537 762.444 581.058 765.652 582.099 768.564C583.165 771.476 584.786 773.808 586.964 775.56C589.166 777.312 591.936 778.188 595.274 778.188ZM673.39 744.771L663.767 746.476C663.364 745.245 662.725 744.073 661.849 742.96C660.997 741.848 659.837 740.936 658.369 740.226C656.901 739.516 655.066 739.161 652.865 739.161C649.858 739.161 647.349 739.835 645.336 741.185C643.324 742.51 642.318 744.227 642.318 746.334C642.318 748.157 642.993 749.625 644.342 750.737C645.691 751.85 647.869 752.761 650.876 753.472L659.541 755.46C664.56 756.62 668.3 758.408 670.762 760.822C673.225 763.237 674.456 766.374 674.456 770.233C674.456 773.5 673.509 776.412 671.615 778.969C669.744 781.502 667.128 783.491 663.767 784.935C660.429 786.379 656.558 787.101 652.154 787.101C646.047 787.101 641.063 785.799 637.204 783.195C633.345 780.567 630.978 776.838 630.102 772.009L640.365 770.446C641.004 773.121 642.318 775.145 644.306 776.518C646.295 777.868 648.887 778.543 652.083 778.543C655.564 778.543 658.345 777.821 660.429 776.376C662.512 774.909 663.554 773.121 663.554 771.014C663.554 769.31 662.914 767.877 661.636 766.717C660.381 765.557 658.452 764.681 655.848 764.089L646.615 762.065C641.525 760.905 637.761 759.059 635.322 756.526C632.907 753.992 631.7 750.785 631.7 746.902C631.7 743.682 632.6 740.865 634.399 738.45C636.198 736.036 638.684 734.153 641.856 732.804C645.029 731.431 648.663 730.744 652.758 730.744C658.653 730.744 663.293 732.023 666.679 734.58C670.064 737.113 672.301 740.51 673.39 744.771ZM711.592 731.455V739.977H681.798V731.455H711.592ZM689.788 718.386H700.406V769.984C700.406 772.044 700.713 773.595 701.329 774.636C701.944 775.654 702.737 776.353 703.708 776.732C704.702 777.087 705.78 777.264 706.94 777.264C707.792 777.264 708.538 777.205 709.177 777.087C709.816 776.968 710.313 776.874 710.668 776.803L712.586 785.574C711.97 785.811 711.094 786.047 709.958 786.284C708.822 786.545 707.401 786.687 705.697 786.71C702.903 786.758 700.299 786.26 697.884 785.219C695.469 784.177 693.516 782.567 692.025 780.389C690.533 778.211 689.788 775.477 689.788 772.186V718.386ZM746.26 787.101C740.886 787.101 736.257 785.953 732.375 783.656C728.516 781.336 725.533 778.081 723.426 773.891C721.342 769.677 720.301 764.741 720.301 759.082C720.301 753.495 721.342 748.571 723.426 744.31C725.533 740.048 728.468 736.722 732.233 734.331C736.02 731.94 740.448 730.744 745.514 730.744C748.592 730.744 751.574 731.253 754.463 732.271C757.351 733.289 759.943 734.887 762.24 737.065C764.536 739.243 766.347 742.072 767.673 745.553C768.999 749.009 769.662 753.211 769.662 758.159V761.923H726.302V753.969H759.257C759.257 751.175 758.689 748.701 757.552 746.547C756.416 744.369 754.818 742.652 752.758 741.398C750.722 740.143 748.331 739.516 745.585 739.516C742.602 739.516 739.998 740.25 737.772 741.717C735.571 743.161 733.866 745.055 732.659 747.399C731.475 749.719 730.883 752.241 730.883 754.963V761.178C730.883 764.823 731.522 767.925 732.801 770.482C734.103 773.038 735.914 774.991 738.234 776.341C740.554 777.667 743.265 778.33 746.366 778.33C748.378 778.33 750.213 778.045 751.87 777.477C753.528 776.885 754.96 776.009 756.167 774.849C757.375 773.689 758.298 772.257 758.937 770.553L768.987 772.364C768.182 775.323 766.738 777.915 764.654 780.141C762.595 782.342 760.002 784.059 756.877 785.29C753.776 786.497 750.237 787.101 746.26 787.101ZM781.442 786V731.455H791.705V740.119H792.273C793.268 737.184 795.02 734.875 797.529 733.195C800.062 731.49 802.927 730.638 806.123 730.638C806.786 730.638 807.567 730.661 808.467 730.709C809.39 730.756 810.112 730.815 810.633 730.886V741.043C810.207 740.924 809.449 740.794 808.36 740.652C807.271 740.486 806.182 740.403 805.093 740.403C802.584 740.403 800.346 740.936 798.381 742.001C796.44 743.043 794.901 744.499 793.765 746.369C792.629 748.216 792.06 750.323 792.06 752.69V786H781.442Z" fill="white"/>
</svg>
